<?xml version="1.0" encoding="utf-8"?><!-- Uploaded to: SVG Repo, www.svgrepo.com, Generator: SVG Repo Mixer Tools -->
<svg width="800px" height="800px" viewBox="0 -0.5 25 25" fill="none" xmlns="http://www.w3.org/2000/svg">
<path fill-rule="evenodd" clip-rule="evenodd" d="M18.867 15.8321L18.873 10.0391L14.75 5.92908C13.5057 4.69031 11.4942 4.69031 10.25 5.92908L6.13599 10.0291V15.8291C6.1393 17.5833 7.56377 19.0028 9.31799 19.0001H15.685C17.438 19.0029 18.862 17.5851 18.867 15.8321Z" stroke="#000000" stroke-width="1.5" stroke-linecap="round" stroke-linejoin="round"/>
<path d="M19.624 6.01807C19.624 5.60385 19.2882 5.26807 18.874 5.26807C18.4598 5.26807 18.124 5.60385 18.124 6.01807H19.624ZM18.874 10.0391H18.124C18.124 10.2384 18.2033 10.4295 18.3445 10.5702L18.874 10.0391ZM19.9705 12.1912C20.2638 12.4837 20.7387 12.4829 21.0311 12.1896C21.3236 11.8962 21.3229 11.4214 21.0295 11.1289L19.9705 12.1912ZM6.66552 10.5602C6.95886 10.2678 6.95959 9.79289 6.66714 9.49955C6.3747 9.20621 5.89982 9.20548 5.60648 9.49793L6.66552 10.5602ZM3.97048 11.1289C3.67714 11.4214 3.67641 11.8962 3.96886 12.1896C4.2613 12.4829 4.73618 12.4837 5.02952 12.1912L3.97048 11.1289ZM13.75 19.0001C13.75 19.4143 14.0858 19.7501 14.5 19.7501C14.9142 19.7501 15.25 19.4143 15.25 19.0001H13.75ZM9.75 19.0001C9.75 19.4143 10.0858 19.7501 10.5 19.7501C10.9142 19.7501 11.25 19.4143 11.25 19.0001H9.75ZM18.124 6.01807V10.0391H19.624V6.01807H18.124ZM18.3445 10.5702L19.9705 12.1912L21.0295 11.1289L19.4035 9.50792L18.3445 10.5702ZM5.60648 9.49793L3.97048 11.1289L5.02952 12.1912L6.66552 10.5602L5.60648 9.49793ZM15.25 19.0001V17.2201H13.75V19.0001H15.25ZM15.25 17.2201C15.25 15.7013 14.0188 14.4701 12.5 14.4701V15.9701C13.1904 15.9701 13.75 16.5297 13.75 17.2201H15.25ZM12.5 14.4701C10.9812 14.4701 9.75 15.7013 9.75 17.2201H11.25C11.25 16.5297 11.8096 15.9701 12.5 15.9701V14.4701ZM9.75 17.2201V19.0001H11.25V17.2201H9.75Z" fill="#000000"/>
</svg>