<svg width="28" height="28" viewBox="0 0 28 28" fill="none" xmlns="http://www.w3.org/2000/svg">
<g id="openmoji:love-letter">
<path id="Vector" d="M25.3113 21.5833H2.6745C2.37776 21.5833 2.09318 21.4654 1.88336 21.2556C1.67354 21.0458 1.55566 20.7612 1.55566 20.4645V6.70755C1.55566 6.47569 1.64777 6.25333 1.81172 6.08938C1.97567 5.92543 2.19803 5.83333 2.42989 5.83333H25.5478C25.7856 5.83333 26.0137 5.92781 26.1819 6.09599C26.3501 6.26417 26.4446 6.49227 26.4446 6.73011V20.4501C26.4446 20.5989 26.4152 20.7463 26.3583 20.8838C26.3013 21.0213 26.2179 21.1462 26.1126 21.2514C26.0074 21.3566 25.8825 21.4401 25.745 21.4971C25.6075 21.554 25.4601 21.5833 25.3113 21.5833Z" fill="white"/>
<path id="Vector_2" d="M18.3026 13.048C18.3028 12.5385 18.1329 12.0435 17.82 11.6414C17.507 11.2394 17.0689 10.9532 16.5749 10.8283C16.0809 10.7035 15.5594 10.747 15.093 10.952C14.6266 11.1571 14.2419 11.5119 13.9999 11.9603C13.758 11.5119 13.3733 11.1571 12.9069 10.952C12.4404 10.747 11.9189 10.7035 11.425 10.8283C10.931 10.9532 10.4928 11.2394 10.1799 11.6414C9.86692 12.0435 9.69708 12.5385 9.69727 13.048C9.69727 13.5917 9.88782 14.0902 10.2044 14.483L10.2036 14.4838L13.9999 19.1885L17.7959 14.4838L17.7951 14.483C18.1238 14.077 18.303 13.5704 18.3026 13.048Z" fill="#EA5A47"/>
<g id="Group">
<path id="Vector_3" d="M25.3113 21.5833H2.6745C2.37776 21.5833 2.09318 21.4654 1.88336 21.2556C1.67354 21.0458 1.55566 20.7612 1.55566 20.4645V6.70755C1.55566 6.47569 1.64777 6.25333 1.81172 6.08938C1.97567 5.92543 2.19803 5.83333 2.42989 5.83333H25.5478C25.7856 5.83333 26.0137 5.92781 26.1819 6.09599C26.3501 6.26417 26.4446 6.49227 26.4446 6.73011V20.4501C26.4446 20.5989 26.4152 20.7463 26.3583 20.8838C26.3013 21.0213 26.2179 21.1462 26.1126 21.2514C26.0074 21.3566 25.8825 21.4401 25.745 21.4971C25.6075 21.554 25.4601 21.5833 25.3113 21.5833Z" stroke="black" stroke-width="1.38889" stroke-miterlimit="10" stroke-linecap="round" stroke-linejoin="round"/>
<path id="Vector_4" d="M1.94434 6.22221L7.77767 12.4444M26.0554 6.22221L20.2221 12.4444" stroke="black" stroke-width="1.38889" stroke-miterlimit="10" stroke-linecap="round"/>
<path id="Vector_5" d="M18.3026 13.048C18.3028 12.5385 18.1329 12.0435 17.82 11.6414C17.507 11.2394 17.0689 10.9532 16.5749 10.8283C16.0809 10.7035 15.5594 10.747 15.093 10.952C14.6266 11.1571 14.2419 11.5119 13.9999 11.9603C13.758 11.5119 13.3733 11.1571 12.9069 10.952C12.4404 10.747 11.9189 10.7035 11.425 10.8283C10.931 10.9532 10.4928 11.2394 10.1799 11.6414C9.86692 12.0435 9.69708 12.5385 9.69727 13.048C9.69727 13.5917 9.88782 14.0902 10.2044 14.483L10.2036 14.4838L13.9999 19.1885L17.7959 14.4838L17.7951 14.483C18.1238 14.077 18.303 13.5704 18.3026 13.048Z" stroke="black" stroke-width="1.38889" stroke-miterlimit="10" stroke-linejoin="round"/>
</g>
</g>
</svg>
