<!DOCTYPE svg PUBLIC "-//W3C//DTD SVG 1.1//EN" "http://www.w3.org/Graphics/SVG/1.1/DTD/svg11.dtd">
<!-- Uploaded to: SVG Repo, www.svgrepo.com, Transformed by: SVG Repo Mixer Tools -->
<svg width="800px" height="800px" viewBox="0 0 24 24" fill="none" xmlns="http://www.w3.org/2000/svg">
<g id="SVGRepo_bgCarrier" stroke-width="0"/>
<g id="SVGRepo_tracerCarrier" stroke-linecap="round" stroke-linejoin="round"/>
<g id="SVGRepo_iconCarrier"> <path d="M13 14C13 13.4477 12.5523 13 12 13C11.4477 13 11 13.4477 11 14V16C11 16.5523 11.4477 17 12 17C12.5523 17 13 16.5523 13 16V14Z" fill="#ffffff"/> <path fill-rule="evenodd" clip-rule="evenodd" d="M9.01875 3.33309C9.74975 2.51635 10.8152 2 12 2C14.2091 2 16 3.79086 16 6V8C18.1323 8 20 9.61368 20 11.7692V17.3077C20 19.973 17.6846 22 15 22H9C6.31545 22 4 19.973 4 17.3077V11.7692C4 9.61368 5.86773 8 8 8H14V6C14 4.89543 13.1046 4 12 4C11.4078 4 10.8767 4.25615 10.509 4.66691C10.1407 5.07844 9.5085 5.11346 9.09697 4.74513C8.68544 4.37681 8.65042 3.74461 9.01875 3.33309ZM8 10C6.81856 10 6 10.866 6 11.7692V17.3077C6 18.7208 7.26627 20 9 20H15C16.7337 20 18 18.7208 18 17.3077V11.7692C18 10.866 17.1814 10 16 10H8Z" fill="#ffffff"/> </g>
</svg>