<svg width="50" height="50" viewBox="0 0 50 50" fill="none" xmlns="http://www.w3.org/2000/svg">
<path id="Vector" d="M2.35599 34.927L0.0109899 49.0635C-0.0101068 49.1897 -0.000739511 49.3191 0.0383113 49.441C0.0773621 49.5628 0.144966 49.6736 0.23549 49.764L0.23649 49.7655C0.42149 49.9495 0.68299 50.033 0.93949 49.989L15.038 47.6065C15.1837 47.5818 15.3198 47.5174 15.4313 47.4204C15.5428 47.3233 15.6254 47.1974 15.67 47.0565C15.7152 46.9158 15.7206 46.7653 15.6856 46.6216C15.6507 46.478 15.5768 46.3468 15.472 46.2425L12.7155 43.486L20.1165 36.085C20.4315 35.7705 20.4315 35.2615 20.1165 34.9465L15.0165 29.846C14.9417 29.7712 14.853 29.7118 14.7552 29.6713C14.6575 29.6308 14.5528 29.61 14.447 29.61C14.3412 29.61 14.2365 29.6308 14.1387 29.6713C14.041 29.7118 13.9523 29.7712 13.8775 29.846L6.47699 37.2465L3.71949 34.489C3.61484 34.3844 3.48335 34.3106 3.33949 34.2758C3.19562 34.241 3.04495 34.2465 2.90403 34.2918C2.76311 34.3371 2.6374 34.4203 2.54071 34.5324C2.44403 34.6444 2.38011 34.781 2.35599 34.927ZM47.644 15.073L49.989 0.936526C50.0099 0.810403 50.0004 0.681118 49.9614 0.559384C49.9223 0.437651 49.8548 0.326974 49.7645 0.236526L49.7635 0.235026C49.6725 0.144576 49.5613 0.0771187 49.439 0.0382496C49.3168 -0.000619516 49.187 -0.00978077 49.0605 0.0115256L34.962 2.39403C34.8161 2.4186 34.6799 2.48288 34.5682 2.57981C34.4565 2.67674 34.3736 2.80258 34.3287 2.9435C34.2838 3.08443 34.2786 3.235 34.3137 3.37868C34.3488 3.52237 34.4227 3.65362 34.5275 3.75803L37.284 6.51453L29.883 13.915C29.8082 13.9898 29.7488 14.0786 29.7083 14.1763C29.6678 14.274 29.6469 14.3787 29.6469 14.4845C29.6469 14.5903 29.6678 14.6951 29.7083 14.7928C29.7488 14.8905 29.8082 14.9793 29.883 15.054L34.983 20.1545C35.0578 20.2294 35.1465 20.2887 35.2442 20.3292C35.342 20.3697 35.4467 20.3906 35.5525 20.3906C35.6583 20.3906 35.763 20.3697 35.8607 20.3292C35.9584 20.2887 36.0472 20.2294 36.122 20.1545L43.523 12.7535L46.2805 15.511C46.3854 15.6152 46.5168 15.6885 46.6606 15.723C46.8043 15.7575 46.9547 15.7518 47.0954 15.7066C47.2361 15.6614 47.3617 15.5784 47.4585 15.4667C47.5552 15.3549 47.6194 15.2188 47.644 15.073ZM34.927 47.644L49.0625 49.989C49.1887 50.0102 49.3181 50.0008 49.44 49.9618C49.5618 49.9227 49.6726 49.8551 49.763 49.7645L49.764 49.763C49.8547 49.6722 49.9223 49.561 49.9613 49.4387C50.0002 49.3164 50.0094 49.1866 49.988 49.06L47.6055 34.962C47.5809 34.8162 47.5166 34.6799 47.4197 34.5682C47.3228 34.4565 47.1969 34.3736 47.056 34.3288C46.9151 34.2839 46.7645 34.2787 46.6208 34.3137C46.4771 34.3488 46.3459 34.4228 46.2415 34.5275L43.485 37.284L36.0845 29.8825C36.0097 29.8078 35.9209 29.7485 35.8232 29.7081C35.7256 29.6677 35.6209 29.6469 35.5151 29.647C35.4094 29.647 35.3047 29.6679 35.2071 29.7084C35.1094 29.7489 35.0207 29.8082 34.946 29.883L29.8455 34.9835C29.7707 35.0583 29.7114 35.147 29.671 35.2447C29.6305 35.3424 29.6097 35.4471 29.6097 35.5528C29.6097 35.6585 29.6305 35.7632 29.671 35.8609C29.7114 35.9585 29.7707 36.0473 29.8455 36.122L37.2465 43.523L34.489 46.2805C34.3847 46.3853 34.3112 46.5168 34.2766 46.6606C34.242 46.8043 34.2476 46.9548 34.2929 47.0956C34.3381 47.2364 34.4212 47.362 34.533 47.4588C34.6449 47.5555 34.7812 47.6196 34.927 47.644ZM15.073 2.35603L0.93699 0.0110256C0.810787 -0.0101128 0.681359 -0.00076564 0.559502 0.0382875C0.437646 0.0773405 0.326896 0.144967 0.23649 0.235526L0.23499 0.237026C0.0514899 0.422026 -0.0320101 0.683026 0.0114899 0.940026L2.39449 15.0385C2.41928 15.1841 2.48366 15.3201 2.58058 15.4316C2.6775 15.5431 2.80323 15.6257 2.94399 15.6705C3.08476 15.7159 3.23535 15.7215 3.37909 15.6866C3.52284 15.6518 3.65414 15.5779 3.75849 15.473L6.51499 12.7165L13.915 20.117C14.23 20.432 14.739 20.432 15.054 20.1175L20.1545 15.017C20.2293 14.9423 20.2887 14.8535 20.3292 14.7558C20.3697 14.658 20.3905 14.5533 20.3905 14.4475C20.3905 14.3417 20.3697 14.237 20.3292 14.1393C20.2887 14.0416 20.2293 13.9528 20.1545 13.878L12.7535 6.47703L15.511 3.71953C15.6152 3.61467 15.6887 3.48325 15.7234 3.33956C15.7581 3.19587 15.7528 3.0454 15.708 2.90453C15.6629 2.76349 15.5798 2.63765 15.4677 2.54087C15.3557 2.44408 15.2191 2.38012 15.073 2.35603Z" fill="black"/>
</svg>
